<?xml version="1.0" standalone="no"?>
<!DOCTYPE svg PUBLIC "-//W3C//DTD SVG 20010904//EN"
 "http://www.w3.org/TR/2001/REC-SVG-20010904/DTD/svg10.dtd">
<svg version="1.0" xmlns="http://www.w3.org/2000/svg"
 width="512.000000pt" height="488.000000pt" viewBox="0 0 512.000000 488.000000"
 preserveAspectRatio="xMidYMid meet">

<g transform="translate(0.000000,488.000000) scale(0.100000,-0.100000)"
fill="#000000" stroke="none">
<path d="M2498 4864 c-55 -17 -146 -77 -273 -179 -275 -223 -501 -487 -677
-792 l-70 -122 -37 15 c-186 80 -386 143 -567 177 -466 90 -541 57 -683 -300
-392 -994 -160 -2119 593 -2875 210 -210 443 -377 711 -508 252 -124 464 -194
732 -242 184 -33 482 -33 666 0 268 48 482 119 732 242 182 89 263 139 420
256 470 351 815 855 974 1419 141 504 129 1057 -34 1553 -50 151 -116 309
-154 367 -62 93 -171 142 -294 130 -272 -25 -553 -92 -778 -185 -39 -17 -73
-30 -75 -30 -1 0 -29 44 -60 98 -180 307 -411 579 -664 784 -244 196 -331 232
-462 192z m203 -457 c175 -139 341 -315 475 -504 60 -83 175 -274 172 -284 -2
-3 -41 -32 -88 -64 -247 -167 -518 -431 -682 -665 l-18 -25 -17 25 c-164 232
-453 515 -670 655 -34 22 -62 46 -63 54 0 17 74 147 143 251 106 160 255 332
395 456 103 92 221 184 237 184 6 0 58 -37 116 -83z m-1903 -802 c120 -23 306
-78 425 -126 56 -23 103 -43 105 -44 2 -2 -8 -41 -23 -87 -163 -515 -177
-1068 -40 -1594 117 -447 331 -832 675 -1215 74 -82 78 -81 -100 -12 -368 145
-680 370 -936 676 -360 429 -552 991 -531 1552 8 190 27 324 72 500 27 104
108 340 129 374 6 9 106 -2 224 -24z m3772 -36 c176 -413 224 -897 134 -1349
-149 -751 -690 -1401 -1400 -1684 -50 -20 -97 -36 -104 -36 -6 0 23 37 65 83
168 180 329 420 451 672 165 342 248 661 276 1057 23 333 -30 745 -136 1057
-14 40 -23 77 -21 81 9 15 252 98 375 129 114 28 303 61 323 57 5 -1 21 -31
37 -67z m-1032 -424 c214 -771 45 -1589 -457 -2213 -46 -57 -85 -101 -87 -99
-3 2 2 46 11 98 79 487 8 1018 -197 1486 l-40 93 65 98 c163 244 365 453 601
620 33 23 63 39 67 35 4 -5 21 -57 37 -118z m-1793 40 c219 -165 411 -372 559
-604 l47 -73 -40 -92 c-172 -393 -250 -832 -221 -1237 6 -89 15 -186 20 -217
5 -31 8 -57 6 -59 -6 -6 -99 114 -164 212 -199 299 -325 624 -389 1002 -14 86
-18 161 -17 368 0 283 13 398 70 610 15 55 29 110 31 123 3 12 10 22 15 22 5
0 42 -25 83 -55z m825 -1169 c0 -2 13 -57 30 -122 50 -201 64 -326 64 -554 0
-144 -5 -239 -17 -320 -23 -149 -78 -373 -89 -362 -14 14 -65 227 -84 352 -13
82 -18 175 -18 325 0 233 14 356 64 559 17 65 30 120 30 122 0 2 5 4 10 4 6 0
10 -2 10 -4z"/>
</g>
</svg>
